/* XPM */
static char *_180b48751814a56bc614b0c9034d7d7iBDcBoOdXuqjctWm[] = {
/* columns rows colors chars-per-pixel */
"64 64 2 1 ",
"  c black",
". c white",
/* pixels */
"                                                                ",
"                                                                ",
"                                                                ",
"                                                                ",
"                            ...                                 ",
"                            ....                                ",
"                            ....                                ",
"                             ...                                ",
"                                                                ",
"                                                                ",
"               ...                  ....                        ",
"      ...      ...                 .....                        ",
"      ...      ...                 .....           ...          ",
"      ...                          ...             ....         ",
"                                                   ....         ",
"                                                    ...         ",
"                                                                ",
"                                                                ",
"                                                                ",
"                    ...                                         ",
"                    ...                                         ",
"                    ...                                         ",
"                                     ...                        ",
"                                     ...                        ",
"                                     ...     ...                ",
"                           ....      ...     ...                ",
"                           ....      ...     ...                ",
"                           ....      ...                        ",
"                                                                ",
"           ...                                                  ",
"           ...                                                  ",
"           ...                                         ...      ",
"           ...                                         ...      ",
"                                                       ...      ",
"                                                                ",
"                                                                ",
"                                                                ",
"                                                                ",
"                                                                ",
"                      ...                                       ",
"                     ....                                       ",
"                     ....                                       ",
"                     ...                                        ",
"                     ...                ...                     ",
"                                        ....    ...             ",
"                                        .....   ...             ",
"                                         ....   ...    ...      ",
"         ...                              ...          ...      ",
"         ...                                           ...      ",
"         ...                                                    ",
"         ...                                                    ",
"                                                                ",
"                                ....              ...           ",
"                                ....              ...           ",
"                                ....              ...           ",
"                                                                ",
"             ...                                                ",
"           .....                                                ",
"           .....                                                ",
"           ....                                                 ",
"                                                                ",
"                                                                ",
"                                                                ",
"                                                                "
};
