/* XPM */
static char *cef55873c0f942fbfc296f5f4c47bda0hD421v2Osk8vUGt6[] = {
/* columns rows colors chars-per-pixel */
"64 64 2 1 ",
"  c black",
". c white",
/* pixels */
"                                                                ",
"                                                                ",
"                                                                ",
"                                                                ",
"                                                                ",
"                                                                ",
"                                                                ",
"                                                                ",
"                                                                ",
"                               ...                              ",
"                              ....                              ",
"                             .....                              ",
"                            ......                              ",
"                           .......                              ",
"                          ........                              ",
"                         .........                              ",
"                        ...... ...                              ",
"                      ......   ...                              ",
"                   .........   ...                              ",
"                 ..........    ...                              ",
"                 .......       ...                              ",
"                 ....          ...                              ",
"                 ...           ...                              ",
"                               ....                             ",
"                               ....                             ",
"                                ...                             ",
"                                ...                             ",
"                                ...                             ",
"                                ...                             ",
"                                ...                             ",
"                                ...                             ",
"                                ...                             ",
"                                ...                             ",
"                                ...                             ",
"                                ...                             ",
"                                ...                             ",
"                                ...                             ",
"                                ...                             ",
"                                ...                             ",
"                                ...                             ",
"                                ...                             ",
"                                ...                             ",
"                                ...                             ",
"                               ....                             ",
"                               ....                             ",
"                               ....                             ",
"                               ...                              ",
"                               ...                              ",
"                               ...                              ",
"                               ...     ............             ",
"               ....................................             ",
"               ....................................             ",
"               ..........................                       ",
"               ...                                              ",
"                                                                ",
"                                                                ",
"                                                                ",
"                                                                ",
"                                                                ",
"                                                                ",
"                                                                ",
"                                                                ",
"                                                                ",
"                                                                "
};
