/* XPM */
static char *_ddebdc080714700dc29d61c0069a592DE4keKwBNP2q2qcw[] = {
/* columns rows colors chars-per-pixel */
"64 64 2 1 ",
"  c black",
". c white",
/* pixels */
"                                                                ",
"                                                                ",
"                                                                ",
"                                                                ",
"                                                                ",
"                                                                ",
"                                                                ",
"                                                                ",
"                                                                ",
"                                                                ",
"                                                                ",
"                                                                ",
"                          .....  .... ...                       ",
"                          ...... .... ....                      ",
"                          ........... ........  ....            ",
"                    .......................... .....            ",
"                   .................................            ",
"                   .................................            ",
"                   ..........      .................            ",
"                 ............       ................            ",
"                ............             .........              ",
"                ........                      ...               ",
"               ......                                           ",
"             ......                                             ",
"            .........                                           ",
"            .........                                           ",
"            .........                                           ",
"            ........                                            ",
"              .....                                             ",
"              .....                                             ",
"             ......                                             ",
"             ......                                             ",
"             .....                                              ",
"             .......                                            ",
"            ........                                            ",
"            ........                                            ",
"            ........                                            ",
"            ........                                            ",
"             .......                                            ",
"             .......                            ...             ",
"             .......                            ...             ",
"               ....                             ....            ",
"               ...  ...                         .....           ",
"               ........                       ........          ",
"               ........                       ........          ",
"               ...........                    ........          ",
"               ... ........             ....  ........          ",
"                   ........   ...       ..............          ",
"                   .................  ............              ",
"                   .... ..........................              ",
"                         .........................              ",
"                          .................. .....              ",
"                          ..................                    ",
"                                ....     ...                    ",
"                                 ...                            ",
"                                                                ",
"                                                                ",
"                                                                ",
"                                                                ",
"                                                                ",
"                                                                ",
"                                                                ",
"                                                                ",
"                                                                "
};
