/* XPM */
static char *a452a5375425404bf46af8bb67b8d9b0Ng5ENtgv2vVlMD5W[] = {
/* columns rows colors chars-per-pixel */
"64 64 2 1 ",
"  c black",
". c white",
/* pixels */
"                                                                ",
"                                                                ",
"                                                                ",
"                                                                ",
"                                                                ",
"                                                                ",
"                                                                ",
"                                    ....                        ",
"                    ....    ....... ....                        ",
"                    ....    ...............    ....             ",
"            .....   ....    ...............    .....            ",
"          ..........................................            ",
"          ..........................................            ",
"          ..........................................            ",
"          ..........................................            ",
"          ..................... ....................            ",
"          .....................  ..................             ",
"           ....................     .............               ",
"          ...............            ....                       ",
"          ...............                                       ",
"         ...............                                        ",
"         ...........                                            ",
"         ...........                                            ",
"         ...........                                            ",
"         ...........                                            ",
"          ..........                                            ",
"           .........                                            ",
"           .........                                            ",
"           ......... .....                                      ",
"           ........  ......                                     ",
"           .......................                              ",
"           .........................                            ",
"           .........................                            ",
"           ..........................                           ",
"           ..........................                           ",
"           ..........................                           ",
"           ..........................                           ",
"           ..........................                           ",
"           ........  ........    ....                           ",
"           ........                                             ",
"           ........                                             ",
"            .......                                             ",
"             ......                                             ",
"             ......                                             ",
"            .......                                             ",
"           ........                                             ",
"           ........                                             ",
"           ........                                             ",
"         ..........                                             ",
"       ............                                             ",
"      .............                                             ",
"      ....................... ..............                    ",
"      .............................................             ",
"      ..............................................            ",
"       .............................................            ",
"          ...........................................           ",
"         ............................................           ",
"        ...........................................             ",
"      ......................... ...................             ",
"      ............   .....       .....     ........             ",
"      .......                              ....                 ",
"      .....                                                     ",
"                                                                ",
"                                                                "
};
