/* XPM */
static char *_26629221c864350b6546bd9b4a7c661zVGsIDNTb0AoKLtf[] = {
/* columns rows colors chars-per-pixel */
"64 64 2 1 ",
"  c black",
". c white",
/* pixels */
"                                                                ",
"                                                                ",
"                                                                ",
"                                                                ",
"                                                                ",
"                                                                ",
"                                                                ",
"       ....   ...                                               ",
"       .....................................                    ",
"       .........................................                ",
"       ..........................................               ",
"       ...........................................              ",
"       ...........................................              ",
"       ...........................................              ",
"       ...........................................              ",
"       ...........................................              ",
"       .................               ...........              ",
"       ..............                     ........              ",
"       ..............                      .......              ",
"       ..............                      .......              ",
"       ..............                      .......              ",
"       ..............                      .......              ",
"       ..............                      .......              ",
"       ..............                      .......              ",
"        .............                     ........              ",
"        .............                     .........             ",
"       ...............                    .........             ",
"       ................                   .........             ",
"       ................                  ..........             ",
"       .................                ...........             ",
"       .................               ............             ",
"       .................        ...................             ",
"        ...........................................             ",
"        ..........................................              ",
"        ..........................................              ",
"         .....................................                  ",
"         .....................................                  ",
"         .... ...............................                   ",
"         ..................................                     ",
"         ..................................                     ",
"         ..................................                     ",
"         ..................................                     ",
"         .............     ...........                          ",
"          ............                                          ",
"          ............                                          ",
"          ............                                          ",
"          ...........                                           ",
"          ...........                                           ",
"          ...........                                           ",
"          ...........                                           ",
"           ..........                                           ",
"           ..........                                           ",
"           ...........                                          ",
"           ...........                                          ",
"           ...........                                          ",
"                                                                ",
"                                                                ",
"                                                                ",
"                                                                ",
"                                                                ",
"                                                                ",
"                                                                ",
"                                                                ",
"                                                                "
};
